<?xml version="1.0" encoding="utf-8"?>
<!-- Generator: Adobe Illustrator 18.0.0, SVG Export Plug-In . SVG Version: 6.00 Build 0)  -->
<!DOCTYPE svg PUBLIC "-//W3C//DTD SVG 1.1//EN" "http://www.w3.org/Graphics/SVG/1.1/DTD/svg11.dtd">
<svg version="1.1" id="Layer_1" xmlns="http://www.w3.org/2000/svg" xmlns:xlink="http://www.w3.org/1999/xlink" x="0px" y="0px"
	 viewBox="0 0 1000 1000" enable-background="new 0 0 1000 1000" xml:space="preserve">
<g id="guides">
	<g id="_x33_">
		<g id="icon_3_">
			<g>
				<rect x="471.8" y="346.2" fill="#4F5A69" width="56" height="162.8"/>
				<path fill="#5FBCF5" d="M829.8,326.1c0,25.2-17.1,45.9-37.9,45.9H207.7c-20.8,0-37.9-20.6-37.9-45.9V94.6
					c0-25.2,17.1-45.9,37.9-45.9h584.2c20.8,0,37.9,20.6,37.9,45.9L829.8,326.1L829.8,326.1z"/>
				<g>
					<path fill="#4F5A69" d="M188.7,661.2v-120c0-12.5,8.7-22.9,19-22.9h584.2c10.3,0.1,18.9,10.5,18.9,22.9v120h38v-120
						c-0.1-38-25.5-68.7-56.9-68.8H207.7c-31.4,0.1-56.8,30.8-56.9,68.8v120H188.7z"/>
				</g>
				<g>
					<path fill="#5FD4AF" d="M440.6,905.4c0,25.2-17.1,45.9-37.9,45.9H38c-20.9,0-38-20.6-38-45.9V674c0-25.2,17.1-45.9,38-45.9
						h364.7c20.9,0,37.9,20.6,37.9,45.9V905.4z"/>
					<path fill="#F26B55" d="M999.6,905.4c0,25.2-17,45.9-37.9,45.9H596.9c-20.9,0-37.9-20.6-37.9-45.9V674
						c0-25.2,17.1-45.9,37.9-45.9h364.8c20.9,0,37.9,20.6,37.9,45.9L999.6,905.4L999.6,905.4z"/>
				</g>
			</g>
			<g>
				<rect x="259.2" y="109" fill="#FFFFFF" width="473" height="31.6"/>
				<rect x="259.2" y="191.2" fill="#FFFFFF" width="473" height="31.6"/>
				<rect x="259.2" y="273.3" fill="#FFFFFF" width="473" height="31.6"/>
			</g>
			<g>
				<rect x="42.6" y="704.1" fill="#FFFFFF" width="343.1" height="26.7"/>
				<rect x="42.6" y="773.5" fill="#FFFFFF" width="343.1" height="26.7"/>
				<rect x="42.6" y="843" fill="#FFFFFF" width="343.1" height="26.7"/>
			</g>
			<g>
				<rect x="615.7" y="704.1" fill="#FFFFFF" width="343.1" height="26.7"/>
				<rect x="615.7" y="773.5" fill="#FFFFFF" width="343.1" height="26.7"/>
				<rect x="615.7" y="843" fill="#FFFFFF" width="343.1" height="26.7"/>
			</g>
		</g>
	</g>
</g>
<g id="Layer_2">
</g>
</svg>
