<?xml version="1.0" encoding="utf-8"?>
<!-- Generator: Adobe Illustrator 18.0.0, SVG Export Plug-In . SVG Version: 6.00 Build 0)  -->
<!DOCTYPE svg PUBLIC "-//W3C//DTD SVG 1.1//EN" "http://www.w3.org/Graphics/SVG/1.1/DTD/svg11.dtd">
<svg version="1.1" id="Layer_2" xmlns="http://www.w3.org/2000/svg" xmlns:xlink="http://www.w3.org/1999/xlink" x="0px" y="0px"
	 viewBox="0 0 1000 1000" enable-background="new 0 0 1000 1000" xml:space="preserve">
<g id="_x33_5">
	<g id="icon_34_">
		<path fill="#D1D3D4" d="M384,858.1c1.8,23.4,15.9,41.7,33.2,41.7l165.4,0c17.3,0,31.4-18.3,33.2-41.7H384z"/>
		<g>
			<path fill="#D1D3D4" d="M587.5,928.6c0,11-7.7,19.9-17.2,19.9H429.6c-9.5,0-17.2-8.9-17.2-19.9l0,0c0-11,7.7-19.9,17.2-19.9
				h140.7C579.8,908.6,587.5,917.6,587.5,928.6L587.5,928.6z"/>
			<path fill="#D1D3D4" d="M587.5,979.7c0,11-7.7,19.9-17.2,19.9H429.6c-9.5,0-17.2-8.9-17.2-19.9l0,0c0-11,7.7-20,17.2-19.9h140.7
				C579.8,959.7,587.5,968.6,587.5,979.7L587.5,979.7z"/>
		</g>
		<path fill="#FFD006" d="M499.9,0.8c-188.1,0-340.6,152.5-340.6,340.6c0,115.7,57.8,217.9,146,279.4c48,55.8,47.1,137.3,46.4,151.8
			c0,45.8,9.1,73.3,83.3,73.3l64.9,0l31.5,0h33.4c84.9,0,83.3-28.6,83.3-73.3c-0.7-14.6-1.7-96,46.4-151.8
			c88.2-61.6,145.9-163.7,145.9-279.4C840.5,153.3,688,0.8,499.9,0.8z"/>
		<path fill="#E6BC05" d="M499.9,0.8V846l31.5,0h33.4c84.9,0,83.3-28.6,83.3-73.3c-0.7-14.6-1.7-96,46.4-151.8
			c88.2-61.6,155.6-174.9,145.1-295C810.6-5.8,499.9,0.8,499.9,0.8z"/>
	</g>
</g>
</svg>
