<?xml version="1.0" encoding="utf-8"?>
<!-- Generator: Adobe Illustrator 18.0.0, SVG Export Plug-In . SVG Version: 6.00 Build 0)  -->
<!DOCTYPE svg PUBLIC "-//W3C//DTD SVG 1.1//EN" "http://www.w3.org/Graphics/SVG/1.1/DTD/svg11.dtd">
<svg version="1.1" id="Layer_2" xmlns="http://www.w3.org/2000/svg" xmlns:xlink="http://www.w3.org/1999/xlink" x="0px" y="0px"
	 viewBox="0 0 1000 1000" enable-background="new 0 0 1000 1000" xml:space="preserve">
<g id="_x31_7">
	<g id="icon_35_">
		<path fill="#505B69" d="M719.7,689.9l0.7-0.7l-8.1-0.3c-17.4-0.7-63.7-2.5-75.9-18.6c-18.3-24.1-35.6-61.6-44.2-101.5
			c15.2-0.4,27.5-12.7,27.5-28c0-2.2-0.4-4.4-0.9-6.5c5.1,5.8,12.5,9.5,20.9,9.5c15.5,0,28.1-12.6,28.1-28.1
			c0-5.8-1.8-11.2-4.8-15.7c0.1,0,0.2-0.1,0.3-0.2c5.1,5.1,12.1,8.2,19.8,8.2c15.6,0,28.1-12.6,28.1-28.1c0-8-3.4-15.2-8.8-20.3
			c4.1,2.3,8.8,3.8,13.9,3.8c15.5,0,28.1-12.6,28.1-28.1c0-10-5.3-18.8-13.2-23.7c2.1-4.4,4.1-8.9,5.9-13.5
			c14.1-1.5,25-13.2,25-27.4c0-8.7-4.1-16.3-10.5-21.4c0.4-2,0.8-4,1.2-6c12-3.1,20.9-13.8,20.9-26.6c0-11.6-7.3-21.4-17.5-25.5
			c0-1.1,0-2.2-0.1-3.3c10.5-4,18.1-13.9,18.1-25.7c0-14.1-10.8-25.6-24.6-27.3c9.2-4.6,15.6-13.8,15.6-24.7
			c0-15.3-12.5-27.7-28.1-27.7c-1.7,0-3.4,0.2-5,0.4c6.8-5,11.3-13,11.3-22.1c0-15.2-12.6-27.6-28.1-27.6c-5.8,0-11.1,1.7-15.6,4.6
			c0-0.1,0-0.1-0.1-0.1c6.2-5.1,10.3-12.7,10.3-21.2c0-15.3-12.6-27.7-28.1-27.7c-6.5,0-12.3,2.2-17.1,5.8c3-4.4,4.8-9.7,4.8-15.4
			c0-15.3-12.6-27.7-28.1-27.7c-8.3,0-15.7,3.6-20.8,9.2c0.8-2.6,1.4-5.4,1.4-8.3c0-15.3-12.7-27.7-28.1-27.7
			c-10.1,0-18.8,5.2-23.8,13c0-0.6,0.2-1.3,0.2-2c0-15.3-12.6-27.7-28.1-27.7c-11.1,0-20.5,6.3-25.1,15.4
			C515.1,10.1,503.5,0,489.5,0c-14,0-25.5,10.1-27.7,23.3c-4.6-9.1-13.9-15.4-25-15.4c-15.5,0-28.1,12.4-28.1,27.7
			c0,0.7,0.1,1.3,0.1,2c-4.9-7.8-13.7-13-23.8-13C369.6,24.7,357,37,357,52.4c0,2.9,0.5,5.7,1.4,8.3c-5.1-5.6-12.5-9.2-20.8-9.2
			c-15.6,0-28.1,12.4-28.1,27.7c0,5.7,1.8,11,4.7,15.4c-4.7-3.6-10.6-5.8-17-5.8c-15.5,0-28.1,12.4-28.1,27.7
			c0,11.8,7.4,21.7,18,25.7c-0.4,0.5-0.9,1.1-1.3,1.6c-5.2-6.5-13.1-10.7-22.2-10.7c-15.5,0-28.1,12.4-28.1,27.6
			c0,9.1,4.5,17.1,11.4,22.1c-1.6-0.2-3.3-0.4-5-0.4c-15.5,0-28.2,12.4-28.2,27.7c0,10.9,6.5,20.1,15.7,24.7
			c-13.8,1.7-24.6,13.2-24.6,27.3c0,13.9,10.4,25.3,23.9,27.3c-13.3,2.2-23.5,13.5-23.5,27.2c0,15.3,12.7,27.6,28.2,27.6
			c1.5,0,2.8-0.2,4.2-0.4c0,0.1,0,0.2,0,0.2c-12,3.2-20.8,13.8-20.8,26.6c0,15.3,12.6,27.7,28.2,27.7c2.8,0,5.4-0.5,7.9-1.2
			c2.2,5.3,4.4,10.5,6.8,15.7c-6.9,5.1-11.6,13.2-11.6,22.5c0,15.5,12.6,28.1,28.2,28.1c4.7,0,8.9-1.2,12.8-3.2
			c0.1,0.1,0.1,0.2,0.2,0.3c-4.8,5.1-7.9,11.9-7.9,19.5c0,15.5,12.6,28.1,28.1,28.1c7.2,0,13.6-2.8,18.6-7.2
			c0.2,0.2,0.4,0.5,0.7,0.6c-2.4,4.2-4,9.1-4,14.3c0,15.5,12.7,28.1,28.1,28.1c8.4,0,15.8-3.7,20.9-9.5c-0.5,2.2-0.8,4.3-0.8,6.5
			c0,15.5,12.5,28.1,28.1,28.1c5.8,0,11-1.9,15.4-4.8c-2.5,30.4-10.2,65-27.8,90c-13.1,18.5-30.1,29.7-50.7,33.1
			c-3.7,0.6-9.1,0.9-14.3,1.1c-2.6,0.1-5.1,0.2-7.4,0.4l-8.5,0.5l0.8,0.7c-118.7,2.9-174.8,204.1-176,310.1h748.1
			C879.9,892.8,839.5,690.1,719.7,689.9z"/>
		<path fill="#FFFFFF" d="M346.2,692.4c19.3-5,35.5-16.5,48.1-34.4c18.1-25.7,26.1-60.8,28.8-91.9c1.8,1.6,3.6,3.2,5.4,4.7
			c4.5,3.9,9,7.5,13.5,10.9c21.2,15.9,41.4,25.6,56.6,26.5c0.7,0,1.5,0,2.2,0c20.9,0,49.1-16.8,76.4-43.3c2.1-2,4.1-4.1,6.2-6.2
			c0.5,3.2,1.2,6.3,1.8,9.5c8.7,41.7,26.7,81.1,45.9,106.3c8.4,11.1,28.3,16.3,49.9,18.9c7.4,0.9,14.9,1.5,22.3,1.9
			C669.9,720,597.7,810.8,525.8,810.8c-2.2,0-4.3,0-6.4,0c-77.1-1.1-157-92.4-193.1-115.8c4.7-0.3,9.3-0.5,12.9-1.1
			C341.5,693.5,343.9,692.9,346.2,692.4z"/>
		<path fill="#FFD006" d="M510.6,96.5c69.1,9.2,123.3,62.5,142.9,131.7c-29.3-50.7-80.5-87.7-142.3-95.9
			c-76-10.1-147,26.3-185.2,87.5c1.5-4.4,3.3-8.6,5.1-12.8c4.5-10.5,9.8-20.5,15.8-29.8C383.3,121.1,445.1,87.8,510.6,96.5z"/>
		<path fill="#FFFFFF" d="M331.1,438c-20.8,5.5-35.5-36.4-35.5-36.4c-7.3-21.9-6.7-42.2-3.7-50.3c8.9-23.8,26.7-17.4,34.2-13.4
			c0.1,1.5,0.2,3,0.3,4.6c0.1,1.8,0.4,3.6,0.6,5.5c0.9,8.9,1.9,17.6,3.1,26.2c0.7,5.1,1.5,10.2,2.3,15.2c0.1-5.7,0.3-11.2,0.6-16.6
			c0.1,0.5,0.3,1,0.4,1.5c0-2.8,0-5.6,0-8.4c1.3-17.4,3.5-33.9,6.9-49.2c1.9,0.5,3.9,0.8,6,0.8c15.5,0,28.1-14.9,28.1-33.2
			c0-2.2-0.2-4.4-0.5-6.5c4.4,3.5,9.7,5.6,15.5,5.6c15.5,0,28.2-14.9,28.2-33.3c0-4.4-0.7-8.7-2.1-12.7c0.4-0.2,0.9-0.3,1.3-0.5
			c3,14.7,14.1,25.5,27.4,25.5c14.4,0,26.1-12.7,27.8-29.1c4.6,11.1,14.2,18.7,25.2,18.7c11.1,0,20.7-7.6,25.3-18.7
			c1.7,16.3,13.4,29.1,27.8,29.1c13.3,0,24.4-10.9,27.3-25.5c0.5,0.3,0.9,0.3,1.4,0.5c-1.4,3.9-2.1,8.2-2.1,12.7
			c0,18.4,12.6,33.3,28.2,33.3c5.8,0,11.2-2.1,15.6-5.6c-0.3,2.1-0.5,4.2-0.5,6.5c0,18.1,12.3,32.7,27.5,33.2
			c4.3,20,6.8,41.9,7.5,65.5c0.1,2.2,0.2,4.3,0.2,6.6c0.8-4.7,1.5-9.5,2.2-14.3c1-6.6,1.8-13.2,2.6-19.9c0.2,2.9,0.1,6.1,0.2,9.1
			c1.7-8,2.5-16.2,1.4-24.3c0,0,0.2-0.2,0.6-0.4c0.6-0.4,1.6-1,3-1.8c7.5-4,25.2-10.2,34,13.5c3,8.1,3.6,28.4-3.7,50.3
			c0,0-14.7,41.9-35.5,36.4c-0.9-0.2-1.5-0.6-2.3-0.8c-1.1-0.4-2.2-0.7-3.1-1.2c-1.1-0.5-2-1.1-2.9-1.8
			c-12.5,40.5-36.9,80-63.9,110.4c-1,1.1-2,2.2-3,3.3c-1,1.1-2,2.2-2.9,3.2c-3.3,3.5-6.6,6.8-9.9,10c-2,1.9-3.9,3.7-5.8,5.5
			c-6.8,6.2-13.6,11.7-20.4,16.3c-16.6,11.7-32.4,18.5-45.3,18.5c-0.6,0-1.2,0-1.8,0c-12-0.7-27.4-7.3-43.9-18.2
			c-10.1-6.7-20.6-15-31-24.6c-0.1-0.1-0.2-0.2-0.4-0.4c-0.1-0.1-0.3-0.3-0.4-0.4c-0.9-0.9-1.8-1.8-2.7-2.6
			c-1.1-1.1-2.2-2.1-3.3-3.2c-31.9-31.3-62-74.3-75.8-119.3c-0.8,0.8-1.9,1.4-2.9,2c-0.9,0.6-1.8,1.1-2.9,1.5
			C334.3,437,332.9,437.6,331.1,438z"/>
		<path fill="#F26B55" d="M452.3,512.5c-2-0.5-4-1.2-6.1-1.4c3-1.1,5.7-2.8,8.3-4.7c1.5-1.1,2.9-2.3,4.3-3.6
			c1.3-1.2,2.6-2.4,3.8-3.7c0.4-0.4,0.8-0.8,1.2-1.2c5-5.1,13-8.3,20.2-8.6c2.4-0.1,4.8,0.1,7.1,0.8c2.5,0.8,4.9,2.2,7.7,1.7
			c6.3-1.3,10.3-3.6,16.9-1.7c5.8,1.6,10.3,4.4,14.6,7.4c1.5,1.1,3,2.2,4.5,3.3c1.5,1.2,3.1,2.2,4.7,3.4c1.4,1,2.8,2,4.3,3
			c1.5,1,3.5,1.1,4.8,2c0.4,0.3,1.9,0.5,2.1,0.9c1.1,2.7-4,5-6.8,5.6c-8.3,11.9-17.7,19.5-33.2,22.6c-13.8,2.8-24.5-0.2-24.5-0.2
			c-20.6-3-31.9-20.5-31.9-20.5C453.5,515.8,452.9,514.2,452.3,512.5z"/>
	</g>
</g>
</svg>
