<?xml version="1.0" encoding="utf-8"?>
<!-- Generator: Adobe Illustrator 18.0.0, SVG Export Plug-In . SVG Version: 6.00 Build 0)  -->
<!DOCTYPE svg PUBLIC "-//W3C//DTD SVG 1.1//EN" "http://www.w3.org/Graphics/SVG/1.1/DTD/svg11.dtd">
<svg version="1.1" id="Layer_1" xmlns="http://www.w3.org/2000/svg" xmlns:xlink="http://www.w3.org/1999/xlink" x="0px" y="0px"
	 viewBox="0 0 1000 1000" enable-background="new 0 0 1000 1000" xml:space="preserve">
<g>
	<path fill="#505B69" d="M828.1,62.7c0-34.4-28.1-62.6-62.6-62.6h-531c-34.4,0-62.6,28.1-62.6,62.6V937c0,34.4,28.1,62.6,62.6,62.6
		h531c34.4,0,62.6-28.1,62.6-62.6V62.7z"/>
	<g>
		<path fill="#E6E6E6" d="M549.4,924.8c0,27.2-22.1,49.4-49.4,49.4c-27.2,0-49.4-22.1-49.4-49.4c0-27.2,22.1-49.4,49.4-49.4
			C527.3,875.4,549.4,897.6,549.4,924.8z"/>
		<path fill="#505B69" d="M514.4,903.3h-28.7c-4,0-7.2,3.2-7.2,7.2v28.7c0,3.9,3.2,7.2,7.2,7.2h28.7c3.9,0,7.2-3.2,7.2-7.2v-28.7
			C521.5,906.5,518.3,903.3,514.4,903.3z M516.8,936.1c0,3.1-2.6,5.6-5.6,5.6h-22.4c-3.1,0-5.6-2.5-5.6-5.6v-22.4
			c0-3,2.5-5.5,5.6-5.5h22.4c3.1,0,5.6,2.5,5.6,5.5V936.1z"/>
	</g>
	<rect x="226.8" y="50.4" fill="#505B69" width="546.5" height="790.7"/>
	<g>
		<g>
			<path fill="#FFFFFF" d="M765.7,833.5V57.8H233.8v775.7H765.7L765.7,833.5z"/>
		</g>
	</g>
	<path fill="#FFD006" d="M304.7,826V641.4c0-6.6,5.4-12,12-12h359.4c6.6,0,12,5.4,12,12V826"/>
	<path fill="#5BCACC" d="M676.1,589.2H316.7c-6.6,0-12-5.4-12-12v-220c0-6.6,5.4-12,12-12h359.4c6.6,0,12,5.4,12,12v220
		C688.1,583.8,682.7,589.2,676.1,589.2z"/>
	<path fill="#F26B55" d="M676.1,304.3H316.7c-6.6,0-12-5.4-12-12V139.5c0-6.6,5.4-12,12-12h359.4c6.6,0,12,5.4,12,12v152.8
		C688.1,298.9,682.7,304.3,676.1,304.3z"/>
</g>
</svg>
