<?xml version="1.0" encoding="utf-8"?>
<!-- Generator: Adobe Illustrator 18.0.0, SVG Export Plug-In . SVG Version: 6.00 Build 0)  -->
<!DOCTYPE svg PUBLIC "-//W3C//DTD SVG 1.1//EN" "http://www.w3.org/Graphics/SVG/1.1/DTD/svg11.dtd">
<svg version="1.1" xmlns="http://www.w3.org/2000/svg" xmlns:xlink="http://www.w3.org/1999/xlink" x="0px" y="0px"
	 viewBox="0 0 1000 1000" enable-background="new 0 0 1000 1000" xml:space="preserve">
<g id="guides">
	<g id="_x32_2">
		<g id="icon_21_">
			<path fill="#BFE4FB" d="M719.7,195.3c-113.1-145-322.2-170.8-467.2-57.8c-145,113.1-170.8,322.3-57.8,467.2
				c113.1,145,322.3,170.8,467.2,57.8C806.8,549.4,832.7,340.3,719.7,195.3z"/>
			<path fill="#505B69" d="M702.3,714.4c-173.6,135.4-424.1,104.4-559.5-69.2C7.5,471.6,38.4,221.1,212,85.6
				C385.7-49.7,636.2-18.8,771.5,154.8C906.9,328.4,876,578.9,702.3,714.4z M702.2,208.9C596.7,73.5,401.4,49.4,266.1,154.9
				c-135.3,105.6-159.5,300.8-54,436.2C317.7,726.5,513,750.6,648.3,645C783.6,539.5,807.8,344.2,702.2,208.9z"/>
			<path fill="#505B69" d="M702.2,739.1l24.2-18.8c20-15.6,48.8-12,64.4,7.9l68.8,87.5L763,891l-68.8-87.5
				C678.6,783.5,682.2,754.7,702.2,739.1z"/>
			<path fill="#505B69" d="M923.8,971.4l-24.2,18.9c-20,15.6-48.8,12-64.4-7.9l-46-59.1l96.5-75.3l46,59.2
				C947.3,927,943.8,955.9,923.8,971.4z"/>
			<g opacity="0.6">
				<path fill="#FFFFFF" d="M662.7,302.9c-2.4,1-4.9,1.6-7.3,1.9c-11.2,1.1-22.3-5.1-26.9-16.1c-19.2-45.6-46.1-65.7-73.1-76.7
					c-26.9-10.8-54.8-10.5-70-8.9c-6,0.6-10,1.4-11.2,1.7c-0.3,0-0.3,0-0.3,0l0,0c-14,3.4-28.1-5.3-31.5-19.3
					c-3.4-14.1,5.3-28.2,19.3-31.5c0.9-0.2,7.6-1.8,18.3-2.9c20.5-2.1,56.3-2.8,94.7,12.3c38.3,14.9,78.5,47.4,102.2,105.4
					C682.3,282.1,676,297.4,662.7,302.9z"/>
				<path fill="#FFFFFF" d="M639.5,360.1c-1.6-15.4,9.6-29.1,25-30.7c15.4-1.6,29.1,9.6,30.7,25c1.6,15.4-9.6,29.1-25,30.7
					C654.9,386.6,641.1,375.5,639.5,360.1z"/>
			</g>
		</g>
	</g>
</g>
<g id="Layer_2">
</g>
</svg>
