<?xml version="1.0" encoding="utf-8"?>
<!-- Generator: Adobe Illustrator 18.0.0, SVG Export Plug-In . SVG Version: 6.00 Build 0)  -->
<!DOCTYPE svg PUBLIC "-//W3C//DTD SVG 1.1//EN" "http://www.w3.org/Graphics/SVG/1.1/DTD/svg11.dtd">
<svg version="1.1" xmlns="http://www.w3.org/2000/svg" xmlns:xlink="http://www.w3.org/1999/xlink" x="0px" y="0px"
	 viewBox="0 0 1000 1000" enable-background="new 0 0 1000 1000" xml:space="preserve">
<g id="guides">
</g>
<g id="Layer_2">
	<g id="_x32_9_1_">
		<g id="icon_1_">
			<g>
				<g>
					<rect x="347.4" y="779.7" fill="#DFE0E1" width="305.6" height="96.5"/>
					<polygon fill="#B7B9BB" points="653,833.8 347.4,817.1 347.4,763 653,763 					"/>
					<polygon fill="#EDEDEE" points="666.8,904.7 334.9,904.7 348.2,876.2 653.6,876.2 					"/>
					<path fill="#DBDCDD" d="M661.3,913c-5.5,0-313.9,0-319.4,0c-5.6,0-7-8.3-7-8.3h332C666.8,904.7,666.8,913,661.3,913z"/>
					<path fill="#DBDCDD" d="M0.2,685.2v69.4c0,15.3,12.5,27.8,27.8,27.8h944.5c15.3,0,27.8-12.5,27.8-27.8v-69.4H0.2z"/>
				</g>
				<path fill="#505B69" d="M972.4,88H27.9c-15.3,0-27.8,12.5-27.8,27.8v569.5h1000V115.8C1000.2,100.5,987.7,88,972.4,88z
					 M972.4,657.4H27.9V115.8h944.5V657.4z"/>
				<rect x="27.9" y="115.8" fill="#FFFFFF" width="944.5" height="541.7"/>
			</g>
			<g id="web_design_1_">
				<g>
					<rect x="98.7" y="470.4" fill="#FFD006" width="226.7" height="86.7"/>
					<rect x="98.7" y="592.5" fill="#CCCCCC" width="226.7" height="5.9"/>
					<rect x="98.7" y="609.4" fill="#CCCCCC" width="226.7" height="5.9"/>
					<rect x="98.7" y="626.3" fill="#CCCCCC" width="123.1" height="5.8"/>
					<rect x="98.7" y="576.6" fill="#CCCCCC" width="226.7" height="5.8"/>
				</g>
				<g>
					<g>
						<rect x="384.2" y="470.4" fill="#F26B55" width="226.7" height="86.7"/>
						<rect x="384.2" y="592.5" fill="#CCCCCC" width="226.7" height="5.9"/>
						<rect x="384.2" y="609.4" fill="#CCCCCC" width="226.7" height="5.9"/>
						<rect x="384.2" y="626.3" fill="#CCCCCC" width="121.8" height="5.8"/>
					</g>
					<rect x="384.2" y="576.6" fill="#CCCCCC" width="226.7" height="5.8"/>
				</g>
				<g>
					<rect x="669.8" y="470.4" fill="#5FBCF5" width="226.7" height="86.7"/>
					<rect x="669.8" y="592.5" fill="#CCCCCC" width="226.7" height="5.9"/>
					<rect x="669.8" y="576.6" fill="#CCCCCC" width="226.7" height="5.8"/>
					<rect x="669.8" y="609.4" fill="#CCCCCC" width="226.7" height="5.9"/>
					<rect x="669.8" y="626.3" fill="#CCCCCC" width="113.3" height="5.8"/>
				</g>
				<rect x="96.4" y="191.1" fill="#5FD4AF" width="800" height="261.7"/>
				<rect x="774.2" y="148.6" fill="#E0E0E0" width="122.3" height="23.4"/>
			</g>
		</g>
	</g>
</g>
</svg>
