<?xml version="1.0" encoding="utf-8"?>
<!-- Generator: Adobe Illustrator 18.0.0, SVG Export Plug-In . SVG Version: 6.00 Build 0)  -->
<!DOCTYPE svg PUBLIC "-//W3C//DTD SVG 1.1//EN" "http://www.w3.org/Graphics/SVG/1.1/DTD/svg11.dtd">
<svg version="1.1" xmlns="http://www.w3.org/2000/svg" xmlns:xlink="http://www.w3.org/1999/xlink" x="0px" y="0px"
	 viewBox="0 0 1000 1000" enable-background="new 0 0 1000 1000" xml:space="preserve">
<g id="guides">
	<g id="_x35_">
		<g id="icon_5_">
			<polygon fill="#CCCCCC" points="530,368.3 893,5.3 950.1,5.3 1000,126.6 947.5,179.1 915.2,180.1 916.6,210.1 759.7,367 
				725,365.6 726.4,400.3 637.1,489.6 			"/>
			<g>
				<path fill="#C0C0C0" d="M926.4,52c-3.5-3.5-9.2-3.5-12.7,0L601.3,364.4c-3.5,3.5-3.5,9.2,0,12.7l0,0c3.5,3.5,9.2,3.5,12.7,0
					L926.4,64.7C929.9,61.2,929.9,55.5,926.4,52L926.4,52z"/>
				<path fill="#C0C0C0" d="M912,21.5c-3.5-3.5-9.2-3.5-12.7,0L570.8,349.9c-3.5,3.5-3.5,9.2,0,12.7l0,0c3.5,3.5,9.2,3.5,12.7,0
					L912,34.2C915.5,30.7,915.5,25,912,21.5L912,21.5z"/>
			</g>
			<path fill="#FFD006" d="M590.4,402.6c-135-135.1-354-135.1-489.1,0c-135.1,135.1-135.1,354,0,489.1
				c135.1,135.1,354,135.1,489.1,0C725.5,756.6,725.5,537.7,590.4,402.6z M308.1,814c-35.7,35.7-93.5,35.7-129.1,0
				c-35.7-35.7-35.7-93.5,0-129.1c35.6-35.7,93.4-35.7,129.1,0C343.8,720.5,343.8,778.3,308.1,814z"/>
		</g>
	</g>
</g>
<g id="Layer_2">
</g>
</svg>
