<?xml version="1.0" encoding="utf-8"?>
<!-- Generator: Adobe Illustrator 18.0.0, SVG Export Plug-In . SVG Version: 6.00 Build 0)  -->
<!DOCTYPE svg PUBLIC "-//W3C//DTD SVG 1.1//EN" "http://www.w3.org/Graphics/SVG/1.1/DTD/svg11.dtd">
<svg version="1.1" xmlns="http://www.w3.org/2000/svg" xmlns:xlink="http://www.w3.org/1999/xlink" x="0px" y="0px"
	 viewBox="0 0 1000 1000" enable-background="new 0 0 1000 1000" xml:space="preserve">
<g id="guides">
	<g id="_x31_3">
		<g id="icon_15_">
			<g>
				<g>
					<path fill="#B2B2B4" d="M676.6,821.1c40.5-42,107.3-43.2,149.3-2.6c0.4,0.4,0.7,0.7,1.1,1.1l0.1-0.1L316.2,326.6L168.4,479.7
						l510.8,492.9l1.2-1.2c-0.4-0.4-0.8-0.7-1.2-1C637.3,929.9,636.1,863,676.6,821.1z"/>
					<path fill="#D1D1D1" d="M827,819.6l-23.1,24c27.6,27.8,28,72.7,0.7,101c-27.3,28.3-72.2,29.4-101,2.9l-23.2,24
						c42,39.4,108,37.9,148.1-3.7C868.7,926.2,867.8,860.1,827,819.6z"/>
					<path fill="#D1D1D1" d="M702.4,946.4c-28.7-27.7-29.6-73.4-1.8-102.1c27.7-28.7,73.4-29.6,102.2-1.8c0.4,0.4,0.7,0.8,1.1,1.2
						l23.1-24c-0.4-0.4-0.7-0.8-1.1-1.1c-42-40.6-108.9-39.4-149.3,2.6c-40.5,42-39.3,108.9,2.6,149.3c0.4,0.4,0.8,0.7,1.2,1
						l23.2-24C703.2,947,702.8,946.8,702.4,946.4z"/>
				</g>
				<path fill="#D1D1D1" d="M158,221.8l56.9,54.7c13.1,12.7,13.6,33.6,0.9,46.8l-55,57.2c-12.6,13.2-33.6,13.6-46.7,0.9l-56.9-54.7
					c-17.9,58.5-2.3,125.7,46,172c67.6,65,173.5,64.4,236.6-1.3c63.1-65.7,59.4-171.5-8.1-236.5C283.4,214.6,215.7,201.6,158,221.8z
					"/>
			</g>
			<g>
				<path fill="#B2B2B4" d="M737.6,391.3l8.5-10.9l-24.2-10.1l-15.7-20.9l-8.5,10.9l-105.1-43.6c46.1,35.7,67.3,89.1,12,160.5
					l1.5,1.2l39.9,30.9l1.5,1.2C703,439.2,760,446.5,806,482.3L737.6,391.3z"/>
				<path fill="#D1D1D1" d="M807.3,188.4l-61.2-47.5c-23.1-17.9-54.9-15.5-71,5.4l-4.3,5.6c-1-0.9-1.9-2-3-2.8l-48.5-37.6l4.1-5.3
					c16.2-20.8,19.8-45.1-3.2-63L577.3,10c-23.1-17.9-45.7-8.3-61.9,12.6l-87.9,113.3c-16.2,20.8-19.8,45.1,3.3,63l42.8,33.2
					c23,17.9,45.7,8.3,61.8-12.5l4.1-5.3l48.5,37.6c1.1,0.9,2.3,1.4,3.4,2.2l-4.3,5.6c-16.2,20.9-10.6,52.3,12.4,70.2l61.3,47.5
					c47.8,37,91.1,71.6,124,97.1c92.7,71.9,99,139.3,109.2,126.2C998.5,465.9,876.9,242.4,807.3,188.4z"/>
				<path fill="#586373" d="M360.3,976.1c-19.7,25.4-56.3,30-81.7,10.3l-43-33.3c-25.4-19.8-30.1-56.3-10.3-81.8l326.2-420.6
					c19.7-25.4,49.2-20.8,74.6-1.1l43,33.4c25.4,19.7,37.2,47.1,17.5,72.5L360.3,976.1z"/>
			</g>
		</g>
	</g>
</g>
<g id="Layer_2">
</g>
</svg>
