<?xml version="1.0" encoding="utf-8"?>
<!-- Generator: Adobe Illustrator 18.0.0, SVG Export Plug-In . SVG Version: 6.00 Build 0)  -->
<!DOCTYPE svg PUBLIC "-//W3C//DTD SVG 1.1//EN" "http://www.w3.org/Graphics/SVG/1.1/DTD/svg11.dtd">
<svg version="1.1" id="Layer_1" xmlns="http://www.w3.org/2000/svg" xmlns:xlink="http://www.w3.org/1999/xlink" x="0px" y="0px"
	 viewBox="0 0 1000 1000" enable-background="new 0 0 1000 1000" xml:space="preserve">
<g id="icon_6_">
	<path fill="#FFD006" d="M403.4,846.6c-15.2,19.9-39.2,32.9-66.2,32.9c-46,0-83.2-37.3-83.2-83.2c0-45.9,37.2-83.1,83.2-83.1
		c27.2,0,51.4,13.1,66.6,33.4c0.6,0.8,1.8,2,1.8-1.8c0,0,0-145.9,0-148.2c0-2.3-1.4-4-4-4H253.4c-3.9,0-2.7-1.2-1.9-1.8
		c20.2-15.2,33.4-39.3,33.4-66.6c0-45.9-37.2-83.2-83.2-83.2c-45.9,0-83.2,37.2-83.2,83.2c0,27,12.9,51,32.8,66.2
		c1,0.8,0.7,2.2-2.3,2.2H7.2c-4.4,0-7.2,2.7-7.2,7.3c0,4.6,0,301.8,0,301.8C0,954.5,43.5,998,96.6,998c0,0,296.2,0,301.8,0
		c5.7,0,7.3-4,7.3-7.3c0-3.2,0-141.9,0-141.9C405.6,845.9,404.2,845.5,403.4,846.6z"/>
	<g>
		<path fill="#5FBCF5" d="M804,592.3c3.2,0,7.2,1.6,7.2,7.3c0,5.6,0,301.8,0,301.8c0,53.1-43.5,96.6-96.6,96.6c0,0-297.2,0-301.8,0
			c-4.5,0-7.2-2.8-7.2-7.3V848.8c0-2-0.6-2.8-1.4-2.8c-0.3,0-0.6,0.2-0.9,0.5c-15.2,19.9-39.2,32.9-66.2,32.9
			c-45.9,0-83.2-37.3-83.2-83.2c0-45.9,37.3-83.1,83.2-83.1c27.2,0,51.4,13.1,66.6,33.4c0.3,0.4,0.7,0.9,1.1,0.9
			c0.4,0,0.8-0.6,0.8-2.7V596.4c0-2.6,1.7-4,4-4c2.3,0,148.2,0,148.2,0c3.9,0,2.6,1.2,1.8,1.9c-20.3,15.2-33.4,39.3-33.4,66.6
			c0,45.9,37.3,83.2,83.2,83.2c45.9,0,83.2-37.2,83.2-83.2c0-27-12.9-51-32.8-66.2c-1-0.8-0.7-2.3,2.2-2.3
			C662.1,592.3,800.8,592.3,804,592.3"/>
	</g>
	<path fill="#5FD4AF" d="M535,257.6c7.2-24,25.1-44.5,50.4-54c43-16.1,90.9,5.7,107.1,48.7c16.1,43-5.7,91-48.7,107.1
		c-25.5,9.6-52.7,5.8-74-7.9c-0.9-0.6-2.5-1.3-1.1,2.4c0,0,51.3,136.6,52.1,138.8c0.8,2.1,2.7,3.3,5.2,2.4l138.8-52
		c3.7-1.4,3,0.2,2.4,1.1c-13.7,21.3-17.5,48.5-7.9,74c16.1,43,64.1,64.8,107.1,48.7c43-16.1,64.8-64.1,48.7-107.1
		c-9.5-25.3-30-43.2-54-50.4c-1.3-0.4-1.4-1.9,1.3-2.9l132.9-49.8c4.1-1.5,5.8-5.1,4.2-9.3C997.8,343,893.5,64.7,893.5,64.7
		c-18.7-49.8-74.6-75.2-124.4-56.5c0,0-277.3,104-282.6,106c-5.3,2-5.4,6.3-4.2,9.3c1.1,3,49.8,132.9,49.8,132.9
		C533.1,259.1,534.7,258.9,535,257.6z"/>
	<g>
		<path fill="#F26B55" d="M398.4,186.7c4.6,0,7.3,2.8,7.3,7.2v141.9c0,2,0.6,2.8,1.3,2.8c0.3,0,0.7-0.2,0.9-0.5
			c15.2-19.9,39.2-32.8,66.2-32.8c46,0,83.1,37.2,83.1,83.2c0,45.9-37.2,83.2-83.1,83.2c-27.2,0-51.4-13.1-66.6-33.4
			c-0.3-0.4-0.7-0.9-1.1-0.9c-0.4,0-0.8,0.6-0.8,2.7v148.2c0,2.6-1.8,4-4,4c-2.3,0-148.2,0-148.2,0c-3.9,0-2.7-1.2-1.9-1.8
			c20.2-15.2,33.4-39.3,33.4-66.6c0-45.9-37.2-83.2-83.2-83.2c-45.9,0-83.2,37.2-83.2,83.2c0,27,12.9,50.9,32.8,66.2
			c1,0.8,0.7,2.2-2.3,2.2c0,0-138.7,0-141.9,0c-3.2,0-7.2-1.6-7.2-7.2c0-5.6,0-301.8,0-301.8c0-53.2,43.5-96.6,96.6-96.6
			C96.6,186.7,393.8,186.7,398.4,186.7"/>
	</g>
</g>
</svg>
