<?xml version="1.0" encoding="utf-8"?>
<!-- Generator: Adobe Illustrator 18.0.0, SVG Export Plug-In . SVG Version: 6.00 Build 0)  -->
<!DOCTYPE svg PUBLIC "-//W3C//DTD SVG 1.1//EN" "http://www.w3.org/Graphics/SVG/1.1/DTD/svg11.dtd">
<svg version="1.1" id="Layer_1" xmlns="http://www.w3.org/2000/svg" xmlns:xlink="http://www.w3.org/1999/xlink" x="0px" y="0px"
	 viewBox="0 0 100 100" enable-background="new 0 0 100 100" xml:space="preserve">
<path display="none" fill="#FF7BAC" d="M85,95H15C9.5,95,5,90.5,5,85V15C5,9.5,9.5,5,15,5h70c5.5,0,10,4.5,10,10v70
	C95,90.5,90.5,95,85,95z"/>
<path fill="#FFFFFF" d="M19,86.7L5.5,45C4.2,41,5.6,36.6,9,34.1L44.2,8.4c3.4-2.5,8.1-2.5,11.5,0L91,34.2c3.4,2.5,4.8,6.9,3.5,10.9
	L81,86.7c-1.3,4-5,6.7-9.3,6.7H28.2C24,93.4,20.3,90.7,19,86.7z"/>
<path display="none" fill="#FFFFFF" d="M94.4,21.9L56.9,86.8c-3.1,5.3-10.8,5.3-13.9,0L5.6,21.9c-3.1-5.3,0.8-12,6.9-12h74.9
	C93.6,9.9,97.5,16.5,94.4,21.9z"/>
</svg>
