<?xml version="1.0" encoding="utf-8"?>
<!-- Generator: Adobe Illustrator 18.0.0, SVG Export Plug-In . SVG Version: 6.00 Build 0)  -->
<!DOCTYPE svg PUBLIC "-//W3C//DTD SVG 1.1//EN" "http://www.w3.org/Graphics/SVG/1.1/DTD/svg11.dtd">
<svg version="1.1" id="Layer_1" xmlns="http://www.w3.org/2000/svg" xmlns:xlink="http://www.w3.org/1999/xlink" x="0px" y="0px"
	 viewBox="0 0 200 200" enable-background="new 0 0 200 200" xml:space="preserve">
<path fill="#FFFFFF" d="M100,0.8C45.4,0.8,0.8,45.4,0.8,100s44.4,99.2,99.2,99.2c54.6,0,99.2-44.4,99.2-99.2
	C199.2,45.4,154.6,0.8,100,0.8z M10.9,100c0-13,2.8-25.2,7.7-36.3l42.5,116.5C31.4,165.7,10.9,135.3,10.9,100z M100,189.1
	c-8.7,0-17.2-1.2-25.2-3.6l26.7-77.7l27.4,75.1c0.2,0.4,0.4,0.8,0.6,1.2C120.4,187.3,110.4,189.1,100,189.1z M112.2,58.2
	c5.3-0.3,10.2-0.8,10.2-0.8c4.8-0.6,4.2-7.6-0.6-7.3c0,0-14.4,1.1-23.8,1.1c-8.7,0-23.5-1.1-23.5-1.1c-4.8-0.3-5.3,7.1-0.5,7.3
	c0,0,4.5,0.5,9.4,0.8l13.9,38.1l-19.5,58.5L45.4,58.2c5.3-0.3,10.2-0.8,10.2-0.8c4.8-0.6,4.2-7.6-0.6-7.3c0,0-14.4,1.1-23.8,1.1
	c-1.6,0-3.6,0-5.8-0.1C41.4,27,68.7,10.9,99.9,10.9c23.3,0,44.3,8.8,60.2,23.4c-0.4,0-0.7-0.1-1.1-0.1c-8.7,0-14.9,7.6-14.9,15.8
	c0,7.3,4.2,13.6,8.7,20.9c3.4,6,7.3,13.6,7.3,24.6c0,7.6-3,16.5-6.8,28.8l-8.8,29.7L112.2,58.2z M144.8,177.1L172,98.4
	c5-12.8,6.8-22.8,6.8-31.9c0-3.3-0.2-6.4-0.6-9.3c7,12.7,10.9,27.3,10.9,42.8C189.1,132.9,171.3,161.6,144.8,177.1z"/>
</svg>
