<?xml version="1.0" encoding="utf-8"?>
<!-- Generator: Adobe Illustrator 18.0.0, SVG Export Plug-In . SVG Version: 6.00 Build 0)  -->
<!DOCTYPE svg PUBLIC "-//W3C//DTD SVG 1.1//EN" "http://www.w3.org/Graphics/SVG/1.1/DTD/svg11.dtd">
<svg version="1.1" id="Layer_1" xmlns="http://www.w3.org/2000/svg" xmlns:xlink="http://www.w3.org/1999/xlink" x="0px" y="0px"
	 viewBox="0 0 600 600" enable-background="new 0 0 600 600" xml:space="preserve">
<path fill="#FFFFFF" d="M495.6,405.6c-6.4,0-13.2-2.9-18.1-25.5c-4.9-22.5-12.2-45.6-12.2-45.6c7.8,0,12.2-3.4,12.2-3.4
	c-5.4-2.5-17.2-10.8-25-21.1c-1.7-2.2-3.9-4.7-6.4-7.3c0-0.1,0-0.2,0-0.3c0,0-14-14-20.8-19.6c0,0,0,0.3,0.1,0.9
	c-0.5-0.4-0.8-0.7-0.8-0.7s0-10.8,0-33.3s14.5-40.2,14.5-40.2c-9.8,0-14.5,8.8-14.5,8.8s0-0.4,0-35.6c11.8-3.3,27.7-9.7,37.7-21.9
	c17.6-21.4,14.9-45.9,14.9-45.9s-19.9,21-49.3,27c6.5-26.9,20.5-39.3,20.5-39.3c-7.4-0.5-12.2,2.9-12.2,2.9
	c3.4-34.8,14.1-45.1,14.1-45.1C410.9,50.3,389,73.4,389,73.4C384.6,52.3,401.9,40,401.9,40c-20.1-4.4-36.7,1.5-36.7,1.5
	c0-13.3,2.3-22.8,4.9-29.3c0.1,0,0.2,0,0.2,0c3.4-7.1,7.2-11.9,7.2-11.9c0,0,0,0,0,0l0,0c-61.2,0-95.9,45.9-96,46.1
	c-2.4-19.6,2.9-36.8,2.9-36.8c0,0,0,0,0,0l0,0c-55.6,23.4-72.8,73.5-74.8,79.7c0,0.1-0.1,0.2-0.1,0.3c0,0.2-0.1,0.3-0.1,0.3
	c0,0,0,0,0,0c-3.9-9.3-4.4-30.4-4.4-30.4s-24.5,41-28.9,69.5c-0.6,3.7-0.9,8.3-1.1,13.5c-30.6-5.4-51.5-27.5-51.5-27.5
	s-2.7,24.4,14.9,45.9c9.9,12.1,25.6,18.5,37.3,21.8c1.5,28.7,4.3,56.3,4.3,56.3s-3.9-4.9-12.2-5.9c0,0,8.8,9.8,8.8,31.9
	c0,0-3.4-2.9-9.3-1.5c0,0,9.3,8.3,10.3,22.5c0,0-10.8,7.4-16.7,14.7c0,0-9.3,0.5-14.2,2c0,0,7.8,4.4,9.3,8.3c0,0-23,23.5-34.8,42.6
	c0,0,10.3-6.4,17.6-4.4c0,0-16.2,19.6-21.6,51.9c0,0,7.8-3.9,11.3-2c0,0-9.8,20.6-10.3,42.1l-10.8,6.4l8.3,5.9
	c0,0-6.4,26.5-7.8,41.7c0,0,4.9-4.9,8.8-6.4c0,0,5.4,12.7,12.7,22.5c6.7,9,21.2,16.7,31.1,17.9c0,0,0,0,0,0c1.8,0.3,3.9,0.1,3.9,0.1
	c0,0,0,0,0,0l0,0c-0.5,3.3-1.2,6.7-2,9.9c-0.1,0.5-0.8,0.8-1.2,0.5c-1.1-0.8-2.3-1.5-3.5-2.1c-3.2-1.1-5.2,0.3-5.2,0.3
	c3.2,0.8,7.1,7.1,7.9,9.5c-2.6-0.2-4.5,0.4-7.1,2c2.4,0.3,5.1,1.6,5.1,1.6c-14.6,6.2-16.8,15.2-21.4,21.4c1.4-0.8,6.1-2.8,6.1-2.8
	c-4.3,4-6.6,13.8-7,17c-0.4,4.2-0.4,4.1-0.7,7.4c1.8-0.6,3.2-1,4.4-1.3c0,0,0,0,0,0c0.2-0.1,0.4-0.1,0.5-0.2
	c1.2-0.3,2.4-0.5,3.9-0.8c4.8-0.7,18.3-2.5,23.2-2l0,0.2l-0.8,9.3c0,0,0.1,0,0.2,0c2.5-0.7,4.6-0.6,6.9-0.9c0,0,0,0,0,0
	c11.3-0.9,19.3,0.9,32.5-0.2c2.6-0.3,5.1-0.7,7.4-2c0.7-1.9,0.7-2.1,1-4.6c0.1-0.4,0.1-0.9,0.2-1.5c0.5,0,4-0.4,5.4-0.5
	c2-0.1,4.1-0.2,5.6-0.3c7.9,0,18.2,0.9,18.3,0.9l0,0c2.3-31.8,19.9-62.4,21.1-64.3c8.6,2.6,44.9,12.3,79.8,0
	c2.8,4.2,7.5,14.7,8.9,18c2.1,5.4,7.5,20,9.8,34.2c0.3,3,0.5,5.7,0.7,7.7c0.1,2.6,0.3,4.4,0.3,4.4c0.2,0,0.4-0.1,0.6-0.1
	c0.4,0,0.8-0.1,1.5-0.2c10.1-1.1,22.9,0.2,22.9,0.2c-0.1,1.7,0.9,5.7,1,6.5c4.9-0.7,9.9-1,14.8-1c0,0,0,0,0,0c2.7,0,5.4,0,8.1,0.2
	c5.8,0.3,11.5,1.4,17.2,2.4c0,0.1,0,0.1,0,0.2c0.6,0.1,1.1,0.1,1.7,0.1c3.1,0.5,6.1,1.1,9.2,1.4c0.1-3.8,0-7.1,0-10.1
	c0.6,0,3.6,0.2,5.1,0.3c5.2,0.5,10.9,1.3,13.7,1.7c1.5,0.4,2.7,0.6,3.9,0.8c0.2,0.1,0.4,0.1,0.5,0.2c0,0,0,0,0,0
	c1.3,0.3,2.6,0.6,4.4,1.3c-0.3-3.3-0.2-3.2-0.7-7.4c-0.3-3.2-2.6-13-7-17c0,0,4.7,2,6.1,2.8c-4.6-6.3-6.9-15.2-21.4-21.4
	c0,0,2.7-1.3,5.1-1.6c-2.5-1.6-4.5-2.2-7.1-2c0.9-2.5,4.7-8.7,7.9-9.5c0,0-2-1.4-5.2-0.3c-1.2,0.6-2.4,1.3-3.5,2.1
	c-0.4,0.3-1.1,0-1.2-0.5c-1-3.8-1.7-7.6-2.3-11.4c29.3-1.1,33.4-16.1,33.4-16.1c2.5,2,2.4,6.4,2.4,6.4
	c12.7-16.7,11.3-33.3,11.3-33.3c2.9,0.5,5.4,2.5,5.4,2.5c1.5-25.5-6.4-69.1-6.4-69.1c3.9,2,6.4-0.5,6.4-0.5c-4.4-2-4.9-6.9-4.9-6.9
	C494.6,411.5,495.6,405.6,495.6,405.6z M348.7,525C348.7,525,348.7,525,348.7,525c0,0-0.1,0-0.1,0C348.6,525,348.6,525,348.7,525z"
	/>
<g>
</g>
<g>
</g>
<g>
</g>
<g>
</g>
<g>
</g>
<g>
</g>
</svg>
