<?xml version="1.0" encoding="utf-8"?>
<!-- Generator: Adobe Illustrator 18.0.0, SVG Export Plug-In . SVG Version: 6.00 Build 0)  -->
<!DOCTYPE svg PUBLIC "-//W3C//DTD SVG 1.1//EN" "http://www.w3.org/Graphics/SVG/1.1/DTD/svg11.dtd">
<svg version="1.1" id="Layer_1" xmlns="http://www.w3.org/2000/svg" xmlns:xlink="http://www.w3.org/1999/xlink" x="0px" y="0px"
	 viewBox="0 0 600 600" enable-background="new 0 0 600 600" xml:space="preserve">
<path fill="#FFFFFF" d="M516.3,337.1c-21,0.1-39.1,5.1-54.3,12.6c-5.6-11.1-11.2-20.9-12.1-28.1c-1.1-8.5-2.4-13.5-1.1-23.6
	c1.3-10.1,7.2-24.4,7.1-25.5c-0.1-1.1-1.3-6.2-13.4-6.3c-12.1-0.1-22.4,2.3-23.6,5.5c-1.2,3.2-3.5,10.4-5,17.9
	c-2.1,11-24.1,50-36.6,70.5c-4.1-8-7.6-15-8.3-20.6c-1.1-8.5-2.4-13.5-1.1-23.6c1.3-10.1,7.2-24.4,7.1-25.5
	c-0.1-1.1-1.3-6.2-13.4-6.3c-12.1-0.1-22.4,2.3-23.6,5.5c-1.2,3.2-2.5,10.6-5,17.9c-2.5,7.2-31.7,72.4-39.4,89.3
	c-3.9,8.6-7.3,15.5-9.7,20.3c0,0,0,0,0,0s-0.1,0.3-0.4,0.8c-2.1,4-3.3,6.2-3.3,6.2s0,0,0,0.1c-1.6,3-3.4,5.7-4.2,5.7
	c-0.6,0-1.8-7.9,0.3-18.7c4.4-22.6,14.8-57.9,14.7-59.1c-0.1-0.6,1.9-6.8-6.8-10c-8.5-3.1-11.6,2.1-12.3,2.1c-0.8,0-1.3,1.8-1.3,1.8
	s9.5-39.7-18.1-39.7c-17.3,0-41.2,18.9-53,36c-7.4,4.1-23.4,12.8-40.3,22c-6.5,3.6-13.1,7.2-19.4,10.7c-0.4-0.5-0.9-0.9-1.3-1.4
	c-33.5-35.7-95.4-61-92.8-109.1c1-17.5,7-63.5,119-119.3c91.7-45.7,165.2-33.1,177.8-5.3c18.1,39.8-39.2,113.8-134.5,124.5
	c-36.3,4.1-55.4-10-60.2-15.2c-5-5.5-5.7-5.8-7.6-4.7c-3,1.7-1.1,6.6,0,9.5c2.8,7.4,14.5,20.5,34.4,27.1c17.5,5.7,60.1,8.9,111.6-11
	c57.7-22.3,102.8-84.4,89.5-136.3c-13.5-52.8-101-70.2-183.9-40.7c-49.3,17.5-102.7,45-141.1,80.9C5.1,216.6-2.1,253.8,0.9,269.3
	C11.5,324.4,87.5,360.4,118,387c-1.5,0.8-2.9,1.6-4.2,2.3c-15.3,7.5-73.2,37.9-87.7,69.9c-16.4,36.3,2.6,62.4,15.2,65.9
	c39.1,10.9,79.2-8.7,100.8-40.8c21.6-32.2,18.9-74,9-93.1c-0.1-0.2-0.3-0.5-0.4-0.7c3.9-2.3,8-4.7,11.9-7c7.8-4.6,15.4-8.8,22-12.4
	c-3.7,10.1-6.4,22.3-7.8,39.9c-1.7,20.6,6.8,47.3,17.9,57.8c4.9,4.6,10.7,4.7,14.4,4.7c12.9,0,18.8-10.7,25.2-23.4
	c7.9-15.5,15-33.6,15-33.6s-8.8,48.9,15.2,48.9c8.8,0,17.6-11.4,21.5-17.2c0,0.1,0,0.1,0,0.1s0.2-0.4,0.7-1.1
	c0.9-1.4,1.4-2.3,1.4-2.3s0-0.1,0-0.3c3.5-6.1,11.3-20.1,23.1-43.1c15.2-29.7,29.7-67,29.7-67s1.4,9.1,5.8,24.2
	c2.6,8.9,8.1,18.7,12.5,28.1c-3.5,4.9-5.7,7.7-5.7,7.7s0,0.1,0.1,0.1c-2.8,3.7-6,7.8-9.3,11.7c-12,14.2-26.2,30.5-28.1,35.2
	c-2.2,5.5-1.7,9.6,2.6,12.9c3.2,2.4,8.8,2.8,14.7,2.4c10.7-0.7,18.3-3.4,22-5c5.8-2.1,12.6-5.3,18.9-10c11.7-8.6,18.8-21,18.1-37.3
	c-0.4-9-3.2-17.9-6.9-26.4c1.1-1.5,2.1-3.1,3.2-4.6c18.5-27,32.8-56.7,32.8-56.7s1.4,9.1,5.8,24.2c2.2,7.6,6.7,15.9,10.6,24.1
	c-17.4,14.1-28.2,30.5-31.9,41.3c-6.9,19.9-1.5,28.9,8.7,31c4.6,0.9,11.1-1.2,16-3.3c6.1-2,13.4-5.4,20.2-10.4
	c11.7-8.6,23-20.7,22.3-37c-0.3-7.4-2.3-14.8-5.1-21.9c14.7-6.1,33.8-9.6,58.1-6.7c52.1,6.1,62.4,38.6,60.4,52.3
	c-2,13.6-12.9,21.1-16.6,23.4c-3.7,2.3-4.8,3-4.5,4.7c0.4,2.4,2.1,2.4,5.3,1.8c4.3-0.7,27.4-11.1,28.4-36.2
	C601.1,371.9,570.5,336.8,516.3,337.1z M114.3,472.6c-17.3,18.8-41.4,26-51.8,20c-11.2-6.5-6.7-34.2,14.4-54.2
	c12.9-12.2,29.6-23.4,40.7-30.3c2.5-1.5,6.2-3.7,10.7-6.4c0.7-0.4,1.2-0.7,1.2-0.7l0,0c0.9-0.5,1.8-1.1,2.7-1.6
	C140,427.7,132.5,452.8,114.3,472.6z M240.2,387c-6,14.7-18.6,52.2-26.3,50.2c-6.6-1.7-10.6-30.2-1.3-58.3
	c4.7-14.1,14.6-31,20.5-37.6c9.4-10.5,19.8-14,22.3-9.7C258.6,337,243.9,377.8,240.2,387z M344.1,436.6c-2.6,1.3-4.9,2.2-6,1.5
	c-0.8-0.5,1.1-2.2,1.1-2.2s13-14,18.1-20.4c3-3.7,6.4-8.1,10.2-13c0,0.5,0,1,0,1.5C367.5,420.8,351.4,432.1,344.1,436.6z
	 M424.2,418.4c-1.9-1.4-1.6-5.7,4.7-19.4c2.5-5.4,8.1-14.4,17.8-23c1.1,3.5,1.8,6.9,1.8,10.1C448.4,407.2,433.3,415.1,424.2,418.4z"
	/>
</svg>
